<?xml version="1.0" encoding="UTF-8" standalone="no"?>
<svg width="21px" height="24px" viewBox="0 0 21 24" version="1.1" xmlns="http://www.w3.org/2000/svg" xmlns:xlink="http://www.w3.org/1999/xlink">
    <g id="Welcome" stroke="none" stroke-width="1" fill="none" fill-rule="evenodd" opacity="0.5">
        <g id="Desktop-HD-Copy" transform="translate(-918.000000, -81.000000)" fill="#FFFFFF">
            <g id="Group-4" transform="translate(917.000000, 80.000000)">
                <g id="git">
                    <path d="M21.864,9.991 C21.869,14.041 19.912,16.347 15.447,17.551 C15.692,18.14 15.898,18.912 15.898,19.891 C15.898,20.888 15.878,23.876 15.878,23.876 C15.875,24.423 15.431,24.864 14.885,24.864 L8.944,24.864 C8.395,24.864 7.951,24.419 7.951,23.869 L7.951,21.88 C4.906,21.88 3.713,20.281 2.841,19.112 C2.416,18.541 2.049,18.049 1.546,17.798 C1.055,17.552 0.857,16.954 1.102,16.463 C1.348,15.972 1.944,15.773 2.435,16.018 C3.358,16.48 3.93,17.247 4.433,17.922 C5.254,19.022 5.902,19.891 7.951,19.891 C7.951,18.912 8.156,18.14 8.402,17.551 C3.946,16.348 1.991,14.042 1.991,9.992 C1.991,8.179 2.463,6.628 3.395,5.373 C3.122,4.267 2.984,3.131 2.984,1.991 C2.984,1.726 3.09,1.471 3.278,1.284 C3.464,1.1 3.715,0.996 3.977,0.996 L3.985,0.996 C4.067,0.997 5.866,1.029 7.888,2.494 C9.091,2.16 10.447,1.991 11.927,1.991 C13.148,1.991 14.293,2.109 15.343,2.342 C17.552,0.852 19.837,0.991 19.939,0.998 C20.46,1.034 20.865,1.468 20.865,1.991 C20.865,3.131 20.727,4.265 20.454,5.369 C21.389,6.624 21.862,8.176 21.864,9.991 Z M18.619,6.258 C18.396,6.004 18.317,5.653 18.41,5.328 C18.567,4.78 18.746,3.995 18.829,3.06 C18.112,3.179 17.103,3.476 16.159,4.204 C15.914,4.393 15.598,4.458 15.3,4.378 C14.293,4.113 13.159,3.98 11.927,3.98 C10.444,3.98 9.122,4.167 7.997,4.538 C7.674,4.644 7.322,4.579 7.058,4.363 C6.304,3.747 5.587,3.406 5.034,3.216 C5.123,4.084 5.291,4.813 5.439,5.33 C5.532,5.656 5.455,6.005 5.232,6.26 C4.399,7.21 3.977,8.465 3.977,9.992 C3.977,12.899 5.007,14.906 10.133,15.933 C10.163,15.939 10.186,15.959 10.215,15.968 C10.28,15.986 10.339,16.012 10.399,16.044 C10.459,16.077 10.514,16.112 10.565,16.155 C10.589,16.175 10.618,16.183 10.64,16.205 C10.663,16.228 10.672,16.259 10.693,16.284 C10.736,16.336 10.771,16.39 10.803,16.449 C10.833,16.507 10.857,16.563 10.876,16.624 C10.893,16.682 10.904,16.739 10.911,16.801 C10.919,16.871 10.919,16.938 10.911,17.008 C10.908,17.04 10.918,17.07 10.912,17.103 C10.906,17.132 10.887,17.153 10.879,17.18 C10.86,17.246 10.834,17.306 10.801,17.367 C10.77,17.426 10.737,17.481 10.694,17.532 C10.677,17.554 10.67,17.581 10.65,17.601 C10.603,17.653 9.938,18.402 9.938,19.891 L9.94,23.06 L13.94,23.06 C13.946,22.099 13.911,20.513 13.911,19.891 C13.911,18.381 13.226,17.63 13.197,17.599 C13.179,17.58 13.172,17.554 13.156,17.533 C13.1,17.465 13.055,17.392 13.018,17.309 C13.005,17.28 12.993,17.252 12.983,17.221 C12.97,17.181 12.946,17.146 12.937,17.103 C12.927,17.052 12.94,17.003 12.937,16.952 C12.936,16.915 12.935,16.88 12.938,16.843 C12.944,16.747 12.963,16.658 12.995,16.571 C13.006,16.541 13.018,16.512 13.032,16.483 C13.074,16.395 13.128,16.317 13.195,16.245 C13.208,16.231 13.212,16.212 13.226,16.199 C13.238,16.188 13.253,16.184 13.265,16.174 C13.334,16.113 13.409,16.066 13.494,16.026 C13.533,16.007 13.571,15.99 13.613,15.976 C13.649,15.964 13.678,15.94 13.716,15.933 C18.852,14.904 19.881,12.898 19.877,9.993 C19.875,8.464 19.452,7.208 18.619,6.258 Z" id="Shape"></path>
                </g>
            </g>
        </g>
    </g>
</svg>
