<?xml version="1.0" encoding="UTF-8" standalone="no"?>
<svg width="24px" height="20px" viewBox="0 0 24 20" version="1.1" xmlns="http://www.w3.org/2000/svg" xmlns:xlink="http://www.w3.org/1999/xlink">
    <g id="Welcome" stroke="none" stroke-width="1" fill="none" fill-rule="evenodd" opacity="0.5">
        <g id="Desktop-HD-Copy" transform="translate(-970.000000, -83.000000)" fill="#FFFFFF">
            <g id="Group-4" transform="translate(917.000000, 80.000000)">
                <g id="twitter" transform="translate(52.000000, 2.000000)">
                    <path d="M16.711,3 C17.881,3 18.937,3.489 19.681,4.275 C20.607,4.092 21.479,3.759 22.263,3.297 C21.96,4.237 21.315,5.027 20.474,5.527 C21.296,5.428 22.083,5.212 22.812,4.891 C22.265,5.698 21.577,6.409 20.782,6.979 C20.789,7.151 20.793,7.326 20.793,7.5 C20.793,12.83 17.426,18.998 9.941,18.998 C6.957,18.998 4.778,18.305 2.979,17.161 C3.297,17.201 3.621,17.218 3.948,17.218 C5.855,17.218 7.61,16.574 9.003,15.491 C7.221,15.46 5.718,14.493 5.202,12.891 C5.45,12.939 5.706,12.964 5.968,12.964 C6.337,12.964 6.699,12.915 7.039,12.823 C5.178,12.453 3.942,10.837 3.942,8.882 L3.942,8.83 C4.491,9.132 5.118,9.314 5.786,9.335 C4.693,8.611 3.975,7.378 3.975,5.979 C3.975,5.24 4.177,4.546 4.526,3.952 C6.533,6.391 9.365,7.783 12.747,7.952 C12.677,7.658 12.641,7.348 12.641,7.034 C12.641,4.806 14.463,3 16.711,3 L16.711,3 Z M22.812,4.891 L22.817,4.891 L22.812,4.891 Z M16.711,0.999 C13.854,0.999 11.453,2.979 10.817,5.632 C8.98,5.127 7.36,4.258 6.058,2.677 C5.679,2.215 5.116,1.952 4.526,1.952 C4.474,1.952 4.422,1.954 4.37,1.958 C3.725,2.009 3.144,2.372 2.815,2.933 C2.273,3.854 1.986,4.907 1.986,5.979 C1.986,6.594 2.08,7.196 2.257,7.767 C2.062,8.08 1.953,8.447 1.953,8.83 L1.953,8.882 C1.953,10.321 2.421,11.64 3.225,12.673 C3.195,12.95 3.222,13.234 3.31,13.507 C3.536,14.211 3.884,14.65 4.326,15.206 C4.201,15.214 4.075,15.218 3.948,15.218 C3.691,15.218 3.446,15.203 3.22,15.175 C3.139,15.165 3.058,15.161 2.978,15.161 C2.146,15.16 1.391,15.685 1.106,16.489 C0.793,17.371 1.13,18.353 1.916,18.853 C4.187,20.297 6.812,20.999 9.941,20.999 C15.035,20.999 18.07,18.556 19.72,16.507 C21.58,14.196 22.682,11.094 22.776,7.937 C23.39,7.391 23.937,6.771 24.41,6.085 C24.657,5.752 24.804,5.339 24.804,4.891 C24.804,4.348 24.59,3.856 24.242,3.496 C24.308,2.832 24.04,2.168 23.509,1.738 C23.147,1.445 22.706,1.296 22.262,1.296 C21.917,1.296 21.57,1.387 21.258,1.57 C20.912,1.774 20.546,1.943 20.165,2.076 C19.158,1.383 17.95,0.999 16.711,0.999 L16.711,0.999 Z" id="Shape"></path>
                </g>
            </g>
        </g>
    </g>
</svg>
