<?xml version="1.0" encoding="UTF-8" standalone="no"?>
<svg width="220px" height="104px" viewBox="0 0 220 104" version="1.1" xmlns="http://www.w3.org/2000/svg" xmlns:xlink="http://www.w3.org/1999/xlink">
    <!-- Generator: Sketch 41 (35326) - http://www.bohemiancoding.com/sketch -->
    <title>logo</title>
    <desc>Created with Sketch.</desc>
    <defs>
        <filter x="-50%" y="-50%" width="200%" height="200%" filterUnits="objectBoundingBox" id="filter-1">
            <feOffset dx="0" dy="3" in="SourceAlpha" result="shadowOffsetOuter1"></feOffset>
            <feGaussianBlur stdDeviation="4" in="shadowOffsetOuter1" result="shadowBlurOuter1"></feGaussianBlur>
            <feColorMatrix values="0 0 0 0 0   0 0 0 0 0   0 0 0 0 0  0 0 0 0.152768342 0" type="matrix" in="shadowBlurOuter1" result="shadowMatrixOuter1"></feColorMatrix>
            <feMerge>
                <feMergeNode in="shadowMatrixOuter1"></feMergeNode>
                <feMergeNode in="SourceGraphic"></feMergeNode>
            </feMerge>
        </filter>
    </defs>
    <g id="Welcome" stroke="none" stroke-width="1" fill="none" fill-rule="evenodd">
        <g id="Desktop-HD-Copy" transform="translate(-610.000000, -47.000000)" fill="#FFFFFF">
            <g id="logo" transform="translate(618.000000, 52.000000)">
                <g id="Group-2-Copy" filter="url(#filter-1)">
                    <g id="i" transform="translate(182.003031, 0.000000)">
                        <polygon id="Shape" points="21.192342 0.222951001 10.7025888 2.2932103 0.212835572 4.39531974 0.212835572 57.9354102 21.192342 53.7311913"></polygon>
                    </g>
                    <g id="r" transform="translate(121.753752, 7.486123)">
                        <polygon id="Shape" points="21.733323 2.59998817 10.9757958 4.71849704 0.218268667 6.83700592 0.218268667 60.7626864 21.733323 56.5577673"></polygon>
                        <path d="M45.1192516,33.0294793 C49.7028936,28.3109822 52.3221176,22.2122446 52.3221176,16.3060986 C52.3221176,11.7159961 50.7006932,7.57527416 47.7696568,4.6542998 C44.8698016,1.76542406 40.8162407,0.160493097 36.3573236,0.160493097 C35.0788929,0.160493097 33.8004621,0.288887574 32.4908501,0.545676529 L27.0653147,1.60493097 L27.0653147,45.0664615 L31.7425004,54.6318501 L52.6651112,50.5874241 L44.8698016,34.6986075 C44.5891705,34.152931 44.7138955,33.47886 45.1192516,33.0294793 L45.1192516,33.0294793 Z" id="Shape"></path>
                    </g>
                    <g id="u" transform="translate(61.504472, 14.972246)">
                        <path d="M22.9481716,60.9112105 C23.950134,60.9112105 25.1137033,60.8459252 26.0833443,60.7479972 L26.0833443,6.00625013 L0.226249579,10.8373644 L0.226249579,35.9722154 L0.226249579,38.2898445 L0.226249579,38.5509859 C0.226249579,44.9163053 2.58570947,50.6287714 6.72284463,54.7091044 C10.8599798,58.724152 16.6455047,60.9112105 22.9481716,60.9112105 L22.9481716,60.9112105 Z" id="Shape"></path>
                        <path d="M48.8699091,47.9847157 C54.0090066,41.8152522 56.7886443,34.4706529 56.7886443,27.2892669 L56.7886443,0.130570655 L31.2547633,4.96168489 L31.2547633,59.6707893 C38.0422506,57.7448721 44.1509893,53.6645392 48.8699091,47.9847157 L48.8699091,47.9847157 Z" id="Shape"></path>
                    </g>
                    <g id="g" transform="translate(0.000000, 27.449118)">
                        <path d="M27.8267308,5.28811152 C12.4968463,8.25859392 0.0629564046,23.1110059 0.0629564046,38.3877725 C0.0629564046,50.5308434 8.08989799,59.5402186 19.6423982,60.6500692 L22.0347416,55.1008164 L27.7952526,41.6520389 L33.5557636,28.2032615 C33.7446329,27.7462642 34.1223713,27.4198375 34.5945443,27.3545522 L55.0553758,23.3721472 L55.0553758,0 L27.8267308,5.28811152 L27.8267308,5.28811152 Z" id="Shape"></path>
                        <path d="M25.1825618,60.3889279 C25.5917785,60.3236426 26.0009951,60.2583572 26.4102117,60.1930719 L54.9924194,54.8723177 L54.9924194,28.6929014 L37.2387133,32.1530238 L25.1825618,60.3889279 L25.1825618,60.3889279 Z" id="Shape"></path>
                    </g>
                </g>
            </g>
        </g>
    </g>
</svg>